<?xml version="1.0" encoding="utf-8" ?><svg xmlns="http://www.w3.org/2000/svg" xmlns:xlink="http://www.w3.org/1999/xlink" width="1024" height="1024" viewBox="0 0 1024 1024"><path d="M0 0L1024 0L1024 1024L0 1024L0 0Z"/><path fill="#042A63" d="M222.922 212.502L543.159 212.53L611.013 212.41C615.279 212.389 636.972 211.449 639.386 212.328C686.643 214.66 728.999 232.848 760.887 268.304C789.454 299.654 804.169 341.201 801.7 383.543C799.457 421.712 778.616 460.543 750.047 485.573C739.075 495.185 729.167 501.361 716.281 507.782C726.643 514.6 734.444 519.038 744.309 527.065C772.6 550.237 792.082 582.415 799.5 618.224C807.944 658.558 797.951 702.098 775.371 736.27C751.171 773.213 713.242 798.985 669.983 807.88C660.359 809.802 650.585 810.883 640.773 811.109C634.371 812.349 618.798 811.039 611.26 810.972L543.201 810.922L349.378 810.954L269.536 810.943C254.038 810.985 237.821 810.766 222.404 811.417C236.098 803.836 245.455 797.828 256.936 786.555C274.508 768.987 286.616 746.706 291.795 722.404C295.1 706.52 294.298 688.398 294.361 671.986L294.478 608.082L294.219 360.754C293.923 356.567 294.131 349.063 294.134 344.627C296.682 311.83 292.952 285.219 273.893 257.272C259.362 235.964 244.845 224.798 222.922 212.502Z"/><path d="M424.437 315.709C430.756 314.513 450.771 314.898 458.052 314.892L524.96 314.945L583.032 315C592.984 315.01 605.541 314.332 615.204 315.664C642.264 319.396 666.592 342.396 671.489 368.907C674.906 386.487 671.125 404.702 660.994 419.47C649.504 436.086 626.802 446.911 607.972 453.286C595.075 445.19 582.883 436.433 570.318 427.865L467.123 356.443C457.574 349.971 448.266 342.954 438.728 336.462C434.979 333.91 428.427 329.201 424.49 327.236L424.437 315.709Z"/><path fill="#FEFEFE" d="M627.96 212.693C631.419 212.31 635.823 212.372 639.386 212.328C686.643 214.66 728.999 232.848 760.887 268.304C789.454 299.654 804.169 341.201 801.7 383.543C799.457 421.712 778.616 460.543 750.047 485.573C739.075 495.185 729.167 501.361 716.281 507.782C726.643 514.6 734.444 519.038 744.309 527.065C772.6 550.237 792.082 582.415 799.5 618.224C807.944 658.558 797.951 702.098 775.371 736.27C751.171 773.213 713.242 798.985 669.983 807.88C660.359 809.802 650.585 810.883 640.773 811.109C637.36 811.115 633.948 811.023 630.54 810.832C635.578 809.746 640.652 809.235 645.81 807.968C689.654 797.201 724.813 770.34 748.345 732.411C771.491 694.79 778.968 649.595 769.171 606.524C761.742 573.862 743.645 544.605 717.738 523.372C709.864 517.003 702.971 512.81 694.406 507.498C701.32 504.221 707.939 500.355 714.19 495.942C744.996 473.755 762.846 438.439 768.841 401.555C775.774 358.474 765.128 314.413 739.288 279.251C711.616 240.897 674.09 220.2 627.96 212.693Z"/><path d="M424.5 570.915C428.277 572.286 448.267 587.098 453.129 590.458C489.453 615.562 525.73 640.816 562.054 665.932C570.8 671.943 579.503 678.017 588.162 684.153C593.276 687.77 601.664 693.904 607.039 696.943C607.086 699.137 607.276 702.838 607.095 704.909C606.979 707.142 607.381 707.598 606.234 708.851C600.648 709.423 587.044 708.985 580.892 708.978L531.506 709.01L462.29 709.029C451.026 709.046 435.151 709.589 424.382 708.941L424.5 570.915Z"/><path fill="#FEFEFE" d="M396.967 315.799C406.027 315.837 415.408 315.996 424.437 315.709L424.49 327.236C424.486 361.89 423.709 399.577 424.559 434.017L572.685 536.746L615.277 565.96C621.198 570.072 631.455 578.083 637.302 581.347L637.332 587.309C637.222 606.585 637.22 625.861 637.326 645.136C637.334 664.833 637.112 685.08 637.434 704.727C637.398 707.006 637.754 707.14 636.774 708.838C631.893 709.182 612.573 709.283 607.84 708.811C607.069 707.389 607.172 706.52 607.095 704.909C607.276 702.838 607.086 699.137 607.039 696.943C606.537 657.39 606.484 617.832 606.879 578.278C597.329 570.354 580.114 559.321 569.501 551.938L496.694 501.27L405.933 438.679C381.555 421.266 356.99 404.116 332.242 387.232C319.551 378.393 307.075 369.372 294.219 360.754C293.923 356.567 294.131 349.063 294.134 344.627C298.508 345.57 386.462 408.051 396.55 414.803L396.967 315.799Z"/><path fill="#FEFEFE" d="M396.602 551.385C404.652 556.442 416.975 565.123 424.5 570.915L424.382 708.941C416.165 708.617 405.318 708.98 396.886 709.001L396.602 551.385Z"/><path d="M637.332 587.309C654.066 597.596 666.017 610.316 670.758 629.842C674.931 647.221 671.981 665.547 662.564 680.738C656.988 689.729 646.819 699.885 637.434 704.727C637.112 685.08 637.334 664.833 637.326 645.136C637.22 625.861 637.222 606.585 637.332 587.309Z"/></svg>